<?xml version="1.0" encoding="utf-8"?>
<!-- Generator: Adobe Illustrator 16.0.0, SVG Export Plug-In . SVG Version: 6.00 Build 0)  -->
<!DOCTYPE svg PUBLIC "-//W3C//DTD SVG 1.1//EN" "http://www.w3.org/Graphics/SVG/1.1/DTD/svg11.dtd">
<svg version="1.1" id="Layer_1" xmlns="http://www.w3.org/2000/svg" xmlns:xlink="http://www.w3.org/1999/xlink" x="0px" y="0px"
	 width="612px" height="792px" viewBox="0 0 612 792" enable-background="new 0 0 612 792" xml:space="preserve">
<g>
	<g id="XMLID_1_">
		<g>
			<path fill="#FFFFFF" d="M478.9,635.7c17.85,5.81,27.6,24.99,21.79,42.83c-5.811,17.85-25,27.6-42.841,21.79L306,653.18
				L154.15,700.32c-17.84,5.81-37.03-3.94-42.84-21.79c-5.81-17.84,3.94-37.021,21.79-42.84l58.28-18.091l-57.94-17.979
				c-17.85-5.82-27.6-25-21.79-42.84c5.82-17.851,25-27.601,42.84-21.79L306,582.02l151.5-47.029
				c17.85-5.811,37.03,3.939,42.85,21.79c5.811,17.84-3.939,37.02-21.79,42.84L420.62,617.6L478.9,635.7z"/>
			<path fill="#FFFFFF" d="M477.62,273.17c39.49,83.74,48.17,247.79-115.79,247.79c0-83.46-55.64-164.32-55.64-164.32
				s-55.64,80.86-55.64,164.32c-140.55,0-168.37-139.1-112.73-222.56c29.99-44.96,91.85-95.78,90.3-181.3
				c-0.37-20.05,20.84-33.23,38.75-24.21c22.66,11.42,49.1,29.27,66.479,55.61c59.681,90.43,29.62,178.74,29.62,178.74
				s37.95-21.62,70.03-59.87C445.52,252.45,469.31,255.56,477.62,273.17z"/>
		</g>
		<g>
		</g>
	</g>
</g>
</svg>
