<?xml version="1.0" encoding="utf-8"?>
<!-- Generator: Adobe Illustrator 16.0.0, SVG Export Plug-In . SVG Version: 6.00 Build 0)  -->
<!DOCTYPE svg PUBLIC "-//W3C//DTD SVG 1.1//EN" "http://www.w3.org/Graphics/SVG/1.1/DTD/svg11.dtd">
<svg version="1.1" id="Layer_1" xmlns="http://www.w3.org/2000/svg" xmlns:xlink="http://www.w3.org/1999/xlink" x="0px" y="0px"
	 width="100px" height="100px" viewBox="0 0 100 100" enable-background="new 0 0 100 100" xml:space="preserve">
<g>
	<circle fill="#231F20" cx="49.999" cy="23.985" r="8.65"/>
	<path fill="#231F20" d="M44.546,34.814c-3.028,0-5.744,1.256-7.716,3.252c0.206,0.339,0.384,0.692,0.618,1.017
		c1.095,1.523,2.42,2.81,3.939,3.826C43.933,44.61,46.911,45.51,50,45.51s6.065-0.9,8.61-2.601c1.519-1.014,2.842-2.301,3.938-3.828
		c0.233-0.325,0.412-0.676,0.618-1.015c-1.974-1.996-4.691-3.252-7.721-3.252H44.546z"/>
	<g>
		<path fill="none" d="M50,11.753c-10.363,0-18.764,8.313-18.764,18.566c0,4.004,1.294,7.701,3.471,10.734
			c1.309,1.821,2.931,3.41,4.805,4.663c2.994,2.001,6.603,3.169,10.488,3.169c3.885,0,7.493-1.168,10.486-3.169
			c1.874-1.253,3.494-2.842,4.803-4.665c2.18-3.031,3.472-6.73,3.472-10.732C68.761,20.065,60.361,11.753,50,11.753z"/>
		<path fill="#231F20" d="M50,5C36.018,5,24.682,16.337,24.682,30.318C24.682,44.302,50,95,50,95s25.317-50.698,25.317-64.682
			C75.317,16.337,63.98,5,50,5z M60.486,45.716c-2.993,2.001-6.602,3.169-10.486,3.169c-3.885,0-7.495-1.168-10.488-3.169
			c-1.874-1.253-3.496-2.842-4.805-4.663c-2.177-3.033-3.471-6.73-3.471-10.734c0-10.254,8.401-18.566,18.764-18.566
			c10.361,0,18.761,8.313,18.761,18.566c0,4.002-1.292,7.701-3.472,10.732C63.98,42.875,62.36,44.463,60.486,45.716z"/>
	</g>
</g>
</svg>
