<?xml version="1.0" encoding="utf-8"?>
<!-- Generator: Adobe Illustrator 24.0.2, SVG Export Plug-In . SVG Version: 6.00 Build 0)  -->
<svg version="1.1" id="Layer_1" xmlns="http://www.w3.org/2000/svg" xmlns:xlink="http://www.w3.org/1999/xlink" x="0px" y="0px"
	 viewBox="0 0 100 100" style="enable-background:new 0 0 100 100;" xml:space="preserve">
<style type="text/css">
	.st0{fill:#8ED8F8;}
	.st1{fill:#231F20;}
</style>
<g>
	<g id="XMLID_1_">
		<g>
			<path class="st0" d="M63.2,38.1c-0.2,0.3-0.4,0.7-0.6,1c-1.1,1.5-2.4,2.8-3.9,3.8c-2.5,1.7-5.5,2.6-8.6,2.6s-6.1-0.9-8.6-2.6
				c-1.5-1-2.8-2.3-3.9-3.8c-0.2-0.3-0.4-0.7-0.6-1c2-2,4.7-3.3,7.7-3.3h10.9C58.5,34.8,61.2,36.1,63.2,38.1z"/>
			<circle class="st0" cx="50" cy="24" r="8.6"/>
			<path class="st1" d="M50,48.9c2.2,0,4.3-0.4,6.2-1C54.3,48.5,52.2,48.9,50,48.9c-2.2,0-4.3-0.4-6.2-1
				C45.7,48.5,47.8,48.9,50,48.9z"/>
			<path class="st0" d="M34.7,41c1.3,1.8,2.9,3.4,4.8,4.7c1.3,0.9,2.7,1.6,4.3,2.1c2,0.7,4,1,6.2,1s4.3-0.4,6.2-1
				c1.5-0.5,3-1.2,4.3-2.1c0.2-0.2,0.5-0.3,0.7-0.5c0.5-0.3,0.9-0.7,1.3-1.1c1-0.9,2-2,2.8-3.1c2.2-3,3.5-6.7,3.5-10.7
				c0-10.2-8.4-18.6-18.8-18.6s-18.8,8.3-18.8,18.6C31.2,34.3,32.5,38,34.7,41z M50,5c14,0,25.3,11.3,25.3,25.3S50,95,50,95
				S24.7,44.3,24.7,30.3S36,5,50,5z"/>
		</g>
		<g>
		</g>
	</g>
</g>
</svg>
